<?xml version="1.0" encoding="utf-8"?>
<!-- Generator: Adobe Illustrator 22.1.0, SVG Export Plug-In . SVG Version: 6.00 Build 0)  -->
<svg version="1.1" id="Layer_1" xmlns="http://www.w3.org/2000/svg" xmlns:xlink="http://www.w3.org/1999/xlink" x="0px" y="0px"
	 viewBox="0 0 17 11" style="enable-background:new 0 0 17 11;" xml:space="preserve">
<style type="text/css">
	.st0{fill:#606880;}
</style>
<path class="st0" d="M1.6,4.4c0.1,0,0.3,0.1,0.4,0.2C2.1,4.7,2.1,4.8,2.1,5v1.1c0,0.1-0.1,0.3-0.2,0.4C1.9,6.5,1.7,6.6,1.6,6.6H0.5
	c-0.1,0-0.3-0.1-0.4-0.2C0.1,6.3,0,6.2,0,6.1V5c0-0.1,0.1-0.3,0.2-0.4c0.1-0.1,0.2-0.2,0.4-0.2H1.6L1.6,4.4z M16.5,5
	c0.1,0,0.3,0.1,0.4,0.2C16.9,5.2,17,5.4,17,5.5c0,0.1-0.1,0.3-0.2,0.4c-0.1,0.1-0.2,0.2-0.4,0.2H5.3C5.2,6.1,5,6,4.9,5.9
	C4.8,5.8,4.8,5.6,4.8,5.5c0-0.1,0.1-0.3,0.2-0.4C5,5,5.2,4.9,5.3,4.9L16.5,5L16.5,5z M1.6,8.8C1.7,8.8,1.9,8.9,2,9
	c0.1,0.1,0.2,0.2,0.2,0.4v1.1c0,0.1-0.1,0.3-0.2,0.4C1.9,10.9,1.7,11,1.6,11H0.5c-0.1,0-0.3-0.1-0.4-0.2C0.1,10.7,0,10.6,0,10.4V9.3
	C0,9.2,0.1,9.1,0.2,9c0.1-0.1,0.2-0.2,0.4-0.2H1.6L1.6,8.8z M16.5,9.4c0.1,0,0.3,0.1,0.4,0.2C16.9,9.6,17,9.8,17,9.9
	c0,0.1-0.1,0.3-0.2,0.4c-0.1,0.1-0.2,0.2-0.4,0.2H5.3c-0.1,0-0.3-0.1-0.4-0.2C4.8,10.2,4.8,10,4.8,9.9c0-0.1,0.1-0.3,0.2-0.4
	C5,9.4,5.2,9.3,5.3,9.3L16.5,9.4L16.5,9.4z M1.6,0C1.7,0,1.9,0.1,2,0.2c0.1,0.1,0.2,0.2,0.2,0.4v1.1C2.1,1.8,2.1,1.9,2,2
	C1.9,2.1,1.7,2.2,1.6,2.2H0.5C0.4,2.2,0.3,2.1,0.2,2C0.1,1.9,0,1.8,0,1.6V0.6c0-0.1,0.1-0.3,0.2-0.4C0.3,0.1,0.4,0,0.5,0H1.6L1.6,0z
	 M5.3,1.6C5.2,1.7,5,1.6,4.9,1.5C4.8,1.4,4.8,1.2,4.8,1.1c0-0.1,0.1-0.3,0.2-0.4C5,0.6,5.2,0.5,5.3,0.6h11.2c0.1,0,0.3,0.1,0.4,0.2
	C16.9,0.8,17,1,17,1.1c0,0.1-0.1,0.3-0.2,0.4c-0.1,0.1-0.2,0.2-0.4,0.2H5.3z"/>
</svg>
